<svg width="154" height="38" viewBox="0 0 154 38" fill="none" xmlns="http://www.w3.org/2000/svg">
<path d="M6.81722 17.0584H0V23.9245H13.4453V37.4595H20.266V30.5967C20.266 23.1198 14.2448 17.0584 6.81722 17.0584ZM1.73156 25.5762H0V32.4423H4.98403V37.4595H11.8047V35.7164C11.8047 30.1161 7.29483 25.5762 1.73156 25.5762ZM13.5404 8.51711H0V15.3832H21.9301V37.4595H28.7508V23.8288C28.7508 15.3724 21.9409 8.51711 13.5404 8.51711ZM22.0012 0H0V6.8661H30.3909V37.4595H37.2116V15.3117C37.2116 6.85527 30.4017 0 22.0012 0Z" fill="white"/>
<path d="M64.8049 13.5783C64.0059 12.9287 63.0635 12.4393 61.978 12.1091C60.892 11.7795 59.7147 11.6143 58.4449 11.6143C57.195 11.6143 56.0022 11.7741 54.8653 12.0935C53.7284 12.4135 52.7347 12.9033 51.885 13.5628C51.0348 14.2228 50.3589 15.0473 49.8572 16.0373C49.3549 17.0269 49.1045 18.192 49.1045 19.5323C49.1045 20.8725 49.3549 22.0373 49.8572 23.0273C50.3589 24.017 51.0348 24.842 51.885 25.5015C52.7346 26.1615 53.7284 26.6513 54.8653 26.9707C56.0022 27.2902 57.195 27.45 58.4449 27.45C59.5095 27.45 60.5134 27.3674 61.4558 27.2027C62.3977 27.0378 63.2478 26.7441 64.0059 26.3211C64.7636 25.8987 65.4193 25.3266 65.9724 24.6046C66.5253 23.8831 66.9348 22.9551 67.2012 21.8209L63.1764 21.6044C62.9921 22.1202 62.7616 22.5375 62.4851 22.857C62.2085 23.1769 61.8805 23.4293 61.5019 23.6149C61.1225 23.8005 60.6877 23.9295 60.1961 24.0014C59.7046 24.0738 59.1616 24.1098 58.5677 24.1098C57.9325 24.1304 57.3333 24.0585 56.7703 23.8933C56.2065 23.7284 55.7049 23.4862 55.2647 23.1665C54.824 22.847 54.4606 22.4549 54.1739 21.9909C53.887 21.5272 53.7026 20.9964 53.6211 20.3983C53.5595 19.3673 53.672 18.4911 53.9589 17.7691C54.2456 17.0476 54.6349 16.4653 55.1264 16.0217C55.618 15.5786 56.1711 15.2538 56.7855 15.0473C57.4002 14.8416 57.9941 14.7488 58.5677 14.7692C59.1821 14.7692 59.7706 14.8362 60.3344 14.9701C60.8974 15.1044 61.3943 15.3155 61.8246 15.6041C62.2546 15.8932 62.6127 16.2591 62.8999 16.7021C63.1863 17.1458 63.3608 17.687 63.4221 18.3259H56.2939C55.9454 18.3259 55.6335 18.357 55.3569 18.4187C55.0804 18.4806 54.8347 18.5887 54.6194 18.7435C54.4044 18.8982 54.2147 19.1098 54.0511 19.3775C53.887 19.6457 53.7439 19.9861 53.6211 20.3983H67.3243C67.3443 20.1923 67.3598 20.0531 67.3704 19.9807C67.3803 19.9086 67.3856 19.7592 67.3856 19.5323C67.3856 18.192 67.1551 17.0269 66.6945 16.0373C66.2335 15.0473 65.6037 14.2277 64.8049 13.5783Z" fill="white"/>
<path d="M80.7204 11.8L77.0335 22.4087C76.9107 22.7389 76.8233 23.1154 76.7724 23.5376C76.721 23.9606 76.6954 24.347 76.6954 24.6976H76.6341C76.6341 24.3471 76.6035 23.9606 76.5419 23.5376C76.4804 23.1154 76.3778 22.7389 76.2347 22.4087L72.4247 11.8H67.6931L73.4387 27.2646H79.6757L85.4213 11.8H80.7204Z" fill="white"/>
<path d="M101.352 13.5783C100.502 12.9287 99.5084 12.4393 98.3715 12.1091C97.2349 11.7795 96.0312 11.6143 94.7616 11.6143C93.4913 11.6143 92.2881 11.7741 91.1515 12.0935C90.0146 12.4135 89.016 12.9033 88.1557 13.5628C87.2954 14.2228 86.6088 15.0473 86.0972 16.0373C85.5849 17.0269 85.3291 18.192 85.3291 19.5323C85.3291 20.8725 85.5849 22.0373 86.0972 23.0273C86.6088 24.017 87.2954 24.842 88.1557 25.5015C89.016 26.1615 90.0146 26.6513 91.1515 26.9707C92.2881 27.2902 93.4913 27.45 94.7616 27.45C96.0312 27.45 97.2349 27.2902 98.3715 26.9707C99.5084 26.6513 100.502 26.1615 101.352 25.5015C102.202 24.842 102.883 24.017 103.395 23.0273C103.907 22.0373 104.163 20.8728 104.163 19.5323C104.163 18.1918 103.907 17.0269 103.395 16.0373C102.883 15.0473 102.202 14.2277 101.352 13.5783ZM99.3701 21.4033C99.1037 21.9499 98.7403 22.4085 98.2796 22.7797C97.8187 23.1509 97.2858 23.4293 96.6818 23.6149C96.0773 23.8005 95.4376 23.8933 94.7616 23.8933C94.0649 23.8933 93.4097 23.8005 92.7951 23.6149C92.1807 23.4293 91.643 23.1563 91.1821 22.7953C90.7212 22.4348 90.3626 21.9756 90.1068 21.4188C89.8505 20.862 89.7226 20.2333 89.7226 19.5322C89.7226 18.8518 89.8609 18.2331 90.1374 17.6763C90.414 17.1197 90.7875 16.6557 91.2588 16.2845C91.7299 15.9133 92.2676 15.6301 92.8718 15.434C93.4758 15.2382 94.1057 15.1401 94.7616 15.1401C95.4168 15.1401 96.052 15.2382 96.6664 15.434C97.281 15.6301 97.8187 15.9187 98.2796 16.3001C98.7403 16.6817 99.1037 17.1404 99.3701 17.6762C99.6363 18.2129 99.7695 18.8314 99.7695 19.5322C99.7695 20.2331 99.6363 20.8572 99.3701 21.4033Z" fill="white"/>
<path d="M110.308 4.74829H105.914V27.2648H110.308V4.74829Z" fill="white"/>
<path d="M125.025 11.8L121.338 22.4087C121.215 22.7389 121.128 23.1154 121.077 23.5376C121.025 23.9606 121 24.347 121 24.6976H120.939C120.939 24.3471 120.908 23.9606 120.846 23.5376C120.785 23.1154 120.682 22.7389 120.539 22.4087L116.729 11.8H111.998L117.743 27.2646H123.98L129.726 11.8H125.025Z" fill="white"/>
<path d="M145.334 13.5783C144.535 12.9287 143.593 12.4393 142.507 12.1091C141.421 11.7795 140.243 11.6143 138.974 11.6143C137.724 11.6143 136.531 11.7741 135.394 12.0935C134.258 12.4135 133.264 12.9033 132.414 13.5628C131.564 14.2228 130.888 15.0473 130.386 16.0373C129.884 17.0269 129.633 18.192 129.633 19.5323C129.633 20.8725 129.884 22.0373 130.386 23.0273C130.888 24.017 131.564 24.842 132.414 25.5015C133.264 26.1615 134.258 26.6513 135.394 26.9707C136.531 27.2902 137.724 27.45 138.974 27.45C140.039 27.45 141.042 27.3674 141.985 27.2027C142.927 27.0378 143.777 26.7441 144.535 26.3211C145.292 25.8987 145.948 25.3266 146.501 24.6046C147.054 23.8831 147.464 22.9551 147.73 21.8209L143.705 21.6044C143.521 22.1202 143.29 22.5375 143.014 22.857C142.738 23.1769 142.41 23.4293 142.031 23.6149C141.652 23.8005 141.216 23.9295 140.725 24.0014C140.233 24.0738 139.69 24.1098 139.096 24.1098C138.462 24.1304 137.862 24.0585 137.299 23.8933C136.736 23.7284 136.234 23.4862 135.794 23.1665C135.353 22.847 134.99 22.4549 134.703 21.9909C134.416 21.5272 134.231 20.9964 134.15 20.3983C134.088 19.3673 134.201 18.4911 134.488 17.7691C134.774 17.0476 135.164 16.4653 135.655 16.0217C136.147 15.5786 136.7 15.2538 137.315 15.0473C137.929 14.8416 138.523 14.7488 139.096 14.7692C139.711 14.7692 140.3 14.8362 140.863 14.9701C141.426 15.1044 141.923 15.3155 142.353 15.6041C142.784 15.8932 143.142 16.2591 143.429 16.7021C143.715 17.1458 143.89 17.687 143.951 18.3259H136.823C136.474 18.3259 136.162 18.357 135.886 18.4187C135.609 18.4806 135.363 18.5887 135.148 18.7435C134.933 18.8982 134.744 19.1098 134.58 19.3775C134.416 19.6457 134.273 19.9861 134.15 20.3983H147.853C147.873 20.1923 147.889 20.0531 147.899 19.9807C147.909 19.9086 147.915 19.7592 147.915 19.5323C147.915 18.192 147.684 17.0269 147.223 16.0373C146.762 15.0473 146.132 14.2277 145.334 13.5783Z" fill="white"/>
<path d="M153.125 11.8659C153.102 11.8302 153.078 11.8041 153.051 11.7876C153.024 11.7712 152.998 11.7587 152.974 11.7502C152.96 11.7459 152.945 11.7423 152.929 11.7394C152.914 11.7366 152.898 11.7341 152.883 11.732C152.867 11.7298 152.851 11.7284 152.835 11.7277C152.818 11.727 152.803 11.7266 152.789 11.7266V11.7223C152.803 11.7223 152.818 11.7213 152.834 11.7191C152.849 11.717 152.865 11.7145 152.881 11.7116C152.898 11.7088 152.914 11.7056 152.929 11.702C152.945 11.6984 152.959 11.6945 152.972 11.6902C152.997 11.6831 153.023 11.6741 153.049 11.6634C153.074 11.6527 153.097 11.6374 153.118 11.6174C153.138 11.5974 153.155 11.5713 153.168 11.5391C153.181 11.507 153.187 11.4652 153.187 11.4138C153.187 11.2867 153.139 11.1928 153.042 11.1321C152.946 11.0714 152.812 11.041 152.642 11.041H151.608V12.5408H152.059V12.078L152.542 12.0759C152.599 12.0759 152.648 12.0901 152.691 12.1187C152.734 12.1473 152.755 12.1915 152.755 12.2515V12.5408H153.202V12.2515C153.202 12.153 153.195 12.073 153.181 12.0116C153.166 11.9502 153.148 11.9016 153.125 11.8659ZM152.691 11.6837C152.66 11.6952 152.626 11.7027 152.591 11.7062C152.555 11.7098 152.524 11.7116 152.497 11.7116H152.059V11.3988H152.582C152.611 11.3988 152.638 11.4009 152.664 11.4052C152.691 11.4095 152.714 11.4177 152.734 11.4298C152.753 11.442 152.77 11.4587 152.783 11.4802C152.795 11.5016 152.802 11.5287 152.802 11.5616C152.802 11.593 152.791 11.6184 152.77 11.6377C152.748 11.6569 152.722 11.6723 152.691 11.6837Z" fill="white"/>
<path d="M152.406 10.1946C151.526 10.1946 150.811 10.9146 150.811 11.7997C150.811 12.6847 151.526 13.4048 152.406 13.4048C153.285 13.4048 154 12.6847 154 11.7997C154 10.9146 153.285 10.1946 152.406 10.1946ZM152.406 12.9495C151.776 12.9495 151.263 12.4337 151.263 11.7997C151.263 11.1656 151.776 10.6498 152.406 10.6498C153.035 10.6498 153.548 11.1656 153.548 11.7997C153.548 12.4337 153.035 12.9495 152.406 12.9495Z" fill="white"/>
<path d="M6.81722 17.0584H0V23.9245H13.4453V37.4595H20.266V30.5967C20.266 23.1198 14.2448 17.0584 6.81722 17.0584ZM1.73156 25.5762H0V32.4423H4.98403V37.4595H11.8047V35.7164C11.8047 30.1161 7.29483 25.5762 1.73156 25.5762ZM13.5404 8.51711H0V15.3832H21.9301V37.4595H28.7508V23.8288C28.7508 15.3724 21.9409 8.51711 13.5404 8.51711ZM22.0012 0H0V6.8661H30.3909V37.4595H37.2116V15.3117C37.2116 6.85527 30.4017 0 22.0012 0Z" fill="white"/>
<path d="M64.8049 13.5783C64.0059 12.9287 63.0635 12.4393 61.978 12.1091C60.892 11.7795 59.7147 11.6143 58.4449 11.6143C57.195 11.6143 56.0022 11.7741 54.8653 12.0935C53.7284 12.4135 52.7347 12.9033 51.885 13.5628C51.0348 14.2228 50.3589 15.0473 49.8572 16.0373C49.3549 17.0269 49.1045 18.192 49.1045 19.5323C49.1045 20.8725 49.3549 22.0373 49.8572 23.0273C50.3589 24.017 51.0348 24.842 51.885 25.5015C52.7346 26.1615 53.7284 26.6513 54.8653 26.9707C56.0022 27.2902 57.195 27.45 58.4449 27.45C59.5095 27.45 60.5134 27.3674 61.4558 27.2027C62.3977 27.0378 63.2478 26.7441 64.0059 26.3211C64.7636 25.8987 65.4193 25.3266 65.9724 24.6046C66.5253 23.8831 66.9348 22.9551 67.2012 21.8209L63.1764 21.6044C62.9921 22.1202 62.7616 22.5375 62.4851 22.857C62.2085 23.1769 61.8805 23.4293 61.5019 23.6149C61.1225 23.8005 60.6877 23.9295 60.1961 24.0014C59.7046 24.0738 59.1616 24.1098 58.5677 24.1098C57.9325 24.1304 57.3333 24.0585 56.7703 23.8933C56.2065 23.7284 55.7049 23.4862 55.2647 23.1665C54.824 22.847 54.4606 22.4549 54.1739 21.9909C53.887 21.5272 53.7026 20.9964 53.6211 20.3983C53.5595 19.3673 53.672 18.4911 53.9589 17.7691C54.2456 17.0476 54.6349 16.4653 55.1264 16.0217C55.618 15.5786 56.1711 15.2538 56.7855 15.0473C57.4002 14.8416 57.9941 14.7488 58.5677 14.7692C59.1821 14.7692 59.7706 14.8362 60.3344 14.9701C60.8974 15.1044 61.3943 15.3155 61.8246 15.6041C62.2546 15.8932 62.6127 16.2591 62.8999 16.7021C63.1863 17.1458 63.3608 17.687 63.4221 18.3259H56.2939C55.9454 18.3259 55.6335 18.357 55.3569 18.4187C55.0804 18.4806 54.8347 18.5887 54.6194 18.7435C54.4044 18.8982 54.2147 19.1098 54.0511 19.3775C53.887 19.6457 53.7439 19.9861 53.6211 20.3983H67.3243C67.3443 20.1923 67.3598 20.0531 67.3704 19.9807C67.3803 19.9086 67.3856 19.7592 67.3856 19.5323C67.3856 18.192 67.1551 17.0269 66.6945 16.0373C66.2335 15.0473 65.6037 14.2277 64.8049 13.5783Z" fill="white"/>
<path d="M80.7204 11.8L77.0335 22.4087C76.9107 22.7389 76.8233 23.1154 76.7724 23.5376C76.721 23.9606 76.6954 24.347 76.6954 24.6976H76.6341C76.6341 24.3471 76.6035 23.9606 76.5419 23.5376C76.4804 23.1154 76.3778 22.7389 76.2347 22.4087L72.4247 11.8H67.6931L73.4387 27.2646H79.6757L85.4213 11.8H80.7204Z" fill="white"/>
<path d="M101.352 13.5783C100.502 12.9287 99.5084 12.4393 98.3715 12.1091C97.2349 11.7795 96.0312 11.6143 94.7616 11.6143C93.4913 11.6143 92.2881 11.7741 91.1515 12.0935C90.0146 12.4135 89.016 12.9033 88.1557 13.5628C87.2954 14.2228 86.6088 15.0473 86.0972 16.0373C85.5849 17.0269 85.3291 18.192 85.3291 19.5323C85.3291 20.8725 85.5849 22.0373 86.0972 23.0273C86.6088 24.017 87.2954 24.842 88.1557 25.5015C89.016 26.1615 90.0146 26.6513 91.1515 26.9707C92.2881 27.2902 93.4913 27.45 94.7616 27.45C96.0312 27.45 97.2349 27.2902 98.3715 26.9707C99.5084 26.6513 100.502 26.1615 101.352 25.5015C102.202 24.842 102.883 24.017 103.395 23.0273C103.907 22.0373 104.163 20.8728 104.163 19.5323C104.163 18.1918 103.907 17.0269 103.395 16.0373C102.883 15.0473 102.202 14.2277 101.352 13.5783ZM99.3701 21.4033C99.1037 21.9499 98.7403 22.4085 98.2796 22.7797C97.8187 23.1509 97.2858 23.4293 96.6818 23.6149C96.0773 23.8005 95.4376 23.8933 94.7616 23.8933C94.0649 23.8933 93.4097 23.8005 92.7951 23.6149C92.1807 23.4293 91.643 23.1563 91.1821 22.7953C90.7212 22.4348 90.3626 21.9756 90.1068 21.4188C89.8505 20.862 89.7226 20.2333 89.7226 19.5322C89.7226 18.8518 89.8609 18.2331 90.1374 17.6763C90.414 17.1197 90.7875 16.6557 91.2588 16.2845C91.7299 15.9133 92.2676 15.6301 92.8718 15.434C93.4758 15.2382 94.1057 15.1401 94.7616 15.1401C95.4168 15.1401 96.052 15.2382 96.6664 15.434C97.281 15.6301 97.8187 15.9187 98.2796 16.3001C98.7403 16.6817 99.1037 17.1404 99.3701 17.6762C99.6363 18.2129 99.7695 18.8314 99.7695 19.5322C99.7695 20.2331 99.6363 20.8572 99.3701 21.4033Z" fill="white"/>
<path d="M110.308 4.74829H105.914V27.2648H110.308V4.74829Z" fill="white"/>
<path d="M125.025 11.8L121.338 22.4087C121.215 22.7389 121.128 23.1154 121.077 23.5376C121.025 23.9606 121 24.347 121 24.6976H120.939C120.939 24.3471 120.908 23.9606 120.846 23.5376C120.785 23.1154 120.682 22.7389 120.539 22.4087L116.729 11.8H111.998L117.743 27.2646H123.98L129.726 11.8H125.025Z" fill="white"/>
<path d="M145.334 13.5783C144.535 12.9287 143.593 12.4393 142.507 12.1091C141.421 11.7795 140.243 11.6143 138.974 11.6143C137.724 11.6143 136.531 11.7741 135.394 12.0935C134.258 12.4135 133.264 12.9033 132.414 13.5628C131.564 14.2228 130.888 15.0473 130.386 16.0373C129.884 17.0269 129.633 18.192 129.633 19.5323C129.633 20.8725 129.884 22.0373 130.386 23.0273C130.888 24.017 131.564 24.842 132.414 25.5015C133.264 26.1615 134.258 26.6513 135.394 26.9707C136.531 27.2902 137.724 27.45 138.974 27.45C140.039 27.45 141.042 27.3674 141.985 27.2027C142.927 27.0378 143.777 26.7441 144.535 26.3211C145.292 25.8987 145.948 25.3266 146.501 24.6046C147.054 23.8831 147.464 22.9551 147.73 21.8209L143.705 21.6044C143.521 22.1202 143.29 22.5375 143.014 22.857C142.738 23.1769 142.41 23.4293 142.031 23.6149C141.652 23.8005 141.216 23.9295 140.725 24.0014C140.233 24.0738 139.69 24.1098 139.096 24.1098C138.462 24.1304 137.862 24.0585 137.299 23.8933C136.736 23.7284 136.234 23.4862 135.794 23.1665C135.353 22.847 134.99 22.4549 134.703 21.9909C134.416 21.5272 134.231 20.9964 134.15 20.3983C134.088 19.3673 134.201 18.4911 134.488 17.7691C134.774 17.0476 135.164 16.4653 135.655 16.0217C136.147 15.5786 136.7 15.2538 137.315 15.0473C137.929 14.8416 138.523 14.7488 139.096 14.7692C139.711 14.7692 140.3 14.8362 140.863 14.9701C141.426 15.1044 141.923 15.3155 142.353 15.6041C142.784 15.8932 143.142 16.2591 143.429 16.7021C143.715 17.1458 143.89 17.687 143.951 18.3259H136.823C136.474 18.3259 136.162 18.357 135.886 18.4187C135.609 18.4806 135.363 18.5887 135.148 18.7435C134.933 18.8982 134.744 19.1098 134.58 19.3775C134.416 19.6457 134.273 19.9861 134.15 20.3983H147.853C147.873 20.1923 147.889 20.0531 147.899 19.9807C147.909 19.9086 147.915 19.7592 147.915 19.5323C147.915 18.192 147.684 17.0269 147.223 16.0373C146.762 15.0473 146.132 14.2277 145.334 13.5783Z" fill="white"/>
<path d="M153.125 11.8659C153.102 11.8302 153.078 11.8041 153.051 11.7876C153.024 11.7712 152.998 11.7587 152.974 11.7502C152.96 11.7459 152.945 11.7423 152.929 11.7394C152.914 11.7366 152.898 11.7341 152.883 11.732C152.867 11.7298 152.851 11.7284 152.835 11.7277C152.818 11.727 152.803 11.7266 152.789 11.7266V11.7223C152.803 11.7223 152.818 11.7213 152.834 11.7191C152.849 11.717 152.865 11.7145 152.881 11.7116C152.898 11.7088 152.914 11.7056 152.929 11.702C152.945 11.6984 152.959 11.6945 152.972 11.6902C152.997 11.6831 153.023 11.6741 153.049 11.6634C153.074 11.6527 153.097 11.6374 153.118 11.6174C153.138 11.5974 153.155 11.5713 153.168 11.5391C153.181 11.507 153.187 11.4652 153.187 11.4138C153.187 11.2867 153.139 11.1928 153.042 11.1321C152.946 11.0714 152.812 11.041 152.642 11.041H151.608V12.5408H152.059V12.078L152.542 12.0759C152.599 12.0759 152.648 12.0901 152.691 12.1187C152.734 12.1473 152.755 12.1915 152.755 12.2515V12.5408H153.202V12.2515C153.202 12.153 153.195 12.073 153.181 12.0116C153.166 11.9502 153.148 11.9016 153.125 11.8659ZM152.691 11.6837C152.66 11.6952 152.626 11.7027 152.591 11.7062C152.555 11.7098 152.524 11.7116 152.497 11.7116H152.059V11.3988H152.582C152.611 11.3988 152.638 11.4009 152.664 11.4052C152.691 11.4095 152.714 11.4177 152.734 11.4298C152.753 11.442 152.77 11.4587 152.783 11.4802C152.795 11.5016 152.802 11.5287 152.802 11.5616C152.802 11.593 152.791 11.6184 152.77 11.6377C152.748 11.6569 152.722 11.6723 152.691 11.6837Z" fill="white"/>
<path d="M152.406 10.1946C151.526 10.1946 150.811 10.9146 150.811 11.7997C150.811 12.6847 151.526 13.4048 152.406 13.4048C153.285 13.4048 154 12.6847 154 11.7997C154 10.9146 153.285 10.1946 152.406 10.1946ZM152.406 12.9495C151.776 12.9495 151.263 12.4337 151.263 11.7997C151.263 11.1656 151.776 10.6498 152.406 10.6498C153.035 10.6498 153.548 11.1656 153.548 11.7997C153.548 12.4337 153.035 12.9495 152.406 12.9495Z" fill="white"/>
</svg>
